<svg width="18" height="18" viewBox="0 0 18 18" fill="none" xmlns="http://www.w3.org/2000/svg">
<path d="M6.25516 10.7231H15.1911L12.1082 6.70196L10.0529 9.38274L8.66786 7.59555L6.25516 10.7231ZM5.36156 14.2975C4.87009 14.2975 4.44935 14.1225 4.09936 13.7725C3.74937 13.4225 3.57438 13.0018 3.57438 12.5103V1.78719C3.57438 1.29571 3.74937 0.874978 4.09936 0.524987C4.44935 0.174996 4.87009 0 5.36156 0H16.0847C16.5762 0 16.9969 0.174996 17.3469 0.524987C17.6969 0.874978 17.8719 1.29571 17.8719 1.78719V12.5103C17.8719 13.0018 17.6969 13.4225 17.3469 13.7725C16.9969 14.1225 16.5762 14.2975 16.0847 14.2975H5.36156ZM5.36156 12.5103H16.0847V1.78719H5.36156V12.5103ZM1.78719 17.8719C1.29571 17.8719 0.874978 17.6969 0.524987 17.3469C0.174996 16.9969 0 16.5762 0 16.0847V3.57438H1.78719V16.0847H14.2975V17.8719H1.78719Z" fill="#4D3942"/>
</svg>
